# xmcd CD database file
#
# Track frame offsets:
#	150
#	17176
#	32402
#	50107
#	65294
#
# Disc length: 1098 seconds
#
# Revision: 0
# Processed by: cddbd v1.5.2PL0 Copyright (c) Steve Scherf et al.
# Submitted via: CDex 1.70beta2
#
DISCID=3b044805
DTITLE=Roxie Randle - Little Victory EP
DYEAR=2012
DGENRE=Country
TTITLE0=You Don't Know a Thing About Love
TTITLE1=Goin' Nowhere
TTITLE2=October Rain
TTITLE3=Learning to Fly
TTITLE4=You Were Wrong
EXTD=YEAR: 2012
EXTT0=
EXTT1=
EXTT2=
EXTT3=
EXTT4=
PLAYORDER=
